{"title":"I, Robot[2004]ENG[BRRip]Xvid-{RedDragon}","uid":7378660,"size":1195426335,"categoryP":"video","categoryS":"movies","magnet":"?xt=urn:btih:cc473973254dd71044475a729287721ae1331fe8&amp;dn=I%2C+Robot%5B2004%5DENG%5BBRRip%5DXvid-%7BRedDragon%7D&amp;tr=udp%3A%2F%2Ftracker.openbittorrent.com%3A80&amp;tr=udp%3A%2F%2Fopen.demonii.com%3A1337&amp;tr=udp%3A%2F%2Ftracker.coppersurfer.tk%3A6969&amp;tr=udp%3A%2F%2Fexodus.desync.com%3A6969","seeders":0,"leechers":1,"uploader":"RedDr4gon","files":13,"time":1340440232,"description":"\n\nGeneral.\n\nComplete name                    : I, Robot[2004]ENG[BRRip]Xvid-{RedDragon}.avi\nFormat                           : .AVI\nFormat/Info                      : Audio Video Interleave\nFile size                        : 1.11 GiB\nDuration                         : 1h 40mn\nOverall bit rate                 : 1,581 Kbps\nIMDB Link                        : http://www.imdb.com/title/tt0343818/\nIMDB Rating                      : 7.0/10\n\n\nVideo.\n\nID                               : 0\nFormat                           : MPEG-4 Visual\nFormat profile                   : Advanced Simple@L5\nFormat settings, BVOP            : Yes\nFormat settings, QPel            : No\nFormat settings, GMC             : No warppoints\nFormat settings, Matrix          : Default (MPEG)\nMuxing mode                      : Packed bitstream\nCodec ID                         : XVID\nCodec ID/Hint                    : XviD\nDuration                         : 1h 40mn\nBit rate                         : 1 124 Kbps\nWidth                            : 672 pixels\nHeight                           : 288 pixels\nDisplay aspect ratio             : 2.35:1\nFrame rate                       : 25.000 fps\nColor space                      : YUV\nChroma subsampling               : 4:2:0\nBit depth                        : 8 bits\nScan type                        : Progressive\nBits/(Pixel*Frame)               : 0.232\nStream size                      : 810 MiB (71%)\nWriting library                  : XviD 1.2.0.dev47 (UTC 2006-11-01)\n\n\nAudio.\n\nID                               : 1\nFormat                           : AC-3\nFormat/Info                      : Audio Coding 3\nMode extension                   : CM (complete main)\nCodec ID                         : 2000\nDuration                         : 1h 40mn\nBit rate mode                    : Constant\nBit rate                         : 448 Kbps\nChannel(s)                       : 6 channels\nChannel positions                : Front: L C R, Side: L R, LFE\nSampling rate                    : 48.0 KHz\nBit depth                        : 16 bits\nStream size                      : 323 MiB (28%)\nAlignment                        : Split accross interleaves\nInterleave, duration             : 40 ms (1.00 video frame)\nInterleave, preload duration     : 500 ms\n\n\nScreens:\n\n\n","torrent":{"xt":"urn:btih:cc473973254dd71044475a729287721ae1331fe8","amp;dn":"I%2C+Robot%5B2004%5DENG%5BBRRip%5DXvid-%7BRedDragon%7D","amp;tr":["udp%3A%2F%2Ftracker.openbittorrent.com%3A80","udp%3A%2F%2Fopen.demonii.com%3A1337","udp%3A%2F%2Ftracker.coppersurfer.tk%3A6969","udp%3A%2F%2Fexodus.desync.com%3A6969"],"infoHash":"cc473973254dd71044475a729287721ae1331fe8","infoHashBuffer":{"type":"Buffer","data":[204,71,57,115,37,77,215,16,68,71,90,114,146,135,114,26,225,51,31,232]},"announce":[],"urlList":[]}}